<?xml version="1.0" standalone="no"?>
<!DOCTYPE svg PUBLIC "-//W3C//DTD SVG 20010904//EN"
 "http://www.w3.org/TR/2001/REC-SVG-20010904/DTD/svg10.dtd">
<svg version="1.0" xmlns="http://www.w3.org/2000/svg"
 width="300.000000pt" height="300.000000pt" viewBox="0 0 300.000000 300.000000"
 preserveAspectRatio="xMidYMid meet">
<metadata>
Created by potrace 1.14, written by Peter Selinger 2001-2017
</metadata>
<g transform="translate(0.000000,300.000000) scale(0.100000,-0.100000)"
fill="#000000" stroke="none">
<path d="M200 2991 c-75 -23 -146 -87 -179 -161 -20 -44 -21 -59 -21 -1335 0
-1276 1 -1291 21 -1335 24 -54 81 -115 131 -141 36 -18 76 -19 1353 -19 1277
0 1317 1 1353 19 44 23 103 83 126 128 14 29 16 158 16 1348 0 1190 -2 1319
-16 1348 -23 45 -82 105 -129 130 l-40 22 -1295 2 c-712 1 -1306 -2 -1320 -6z
m1785 -862 c50 -13 101 -58 123 -109 8 -19 18 -79 21 -132 l6 -98 -61 0 -62 0
-3 79 c-4 67 -8 83 -28 105 -32 34 -74 34 -106 1 l-25 -24 0 -339 c0 -328 1
-340 21 -366 15 -20 29 -26 57 -26 71 0 82 24 82 184 l0 126 -34 0 -34 0 -4
71 -3 71 50 -6 c28 -3 72 -6 98 -6 l48 0 -3 -227 c-3 -208 -5 -232 -24 -267
-32 -61 -64 -80 -144 -84 -60 -4 -78 0 -123 21 -61 31 -102 86 -114 156 -4 25
-8 197 -8 381 0 322 1 337 22 382 45 97 134 136 248 107z m-335 -69 l0 -70
-75 0 -75 0 0 -440 0 -440 -70 0 -70 0 0 440 0 440 -75 0 -75 0 0 65 0 64 58
3 c31 2 130 5 220 6 l162 3 0 -71z m-490 -4 l0 -63 -61 -7 c-34 -3 -91 -6
-125 -6 l-64 0 0 -147 0 -146 101 6 100 6 -3 -69 -3 -69 -97 -7 -98 -7 0 -169
0 -170 43 6 c23 3 79 8 125 12 l83 7 -5 -69 -4 -69 -74 -7 c-92 -9 -244 -27
-280 -34 l-28 -6 0 400 c0 219 3 460 7 535 l6 137 189 0 188 0 0 -64z m1173
58 l37 -7 0 -534 0 -535 -47 6 c-27 4 -56 9 -65 12 -17 5 -18 39 -18 535 l0
529 28 0 c15 0 44 -3 65 -6z m-1679 -541 c-3 -296 -8 -540 -10 -542 -2 -2 -32
-9 -67 -16 l-63 -12 -84 399 c-46 219 -88 398 -92 398 -4 0 -8 -189 -8 -420
l0 -419 -42 -11 c-24 -6 -50 -13 -58 -15 -13 -4 -15 64 -12 580 l2 585 85 0
c47 0 85 -4 85 -8 0 -5 27 -136 59 -293 33 -156 63 -301 67 -321 17 -98 24
-13 24 297 l0 335 61 0 61 0 -8 -537z m2171 521 l60 -5 -3 -75 -4 -76 -71 4
-72 3 1 -493 c0 -270 -1 -492 -3 -492 -2 0 -33 7 -68 16 l-65 16 0 484 0 484
-75 0 -75 0 0 76 0 76 158 -6 c86 -4 184 -9 217 -12z"/>
</g>
</svg>
